<svg width="240" height="96" viewBox="0 0 240 96" fill="none" xmlns="http://www.w3.org/2000/svg"><g clip-path="url(#a)"><path d="M31.0089 20.9897C14.1384 20.9897 0.0795898 28.148 0.0795898 49.7417C0.0795898 66.8491 9.53327 77.6216 31.4445 77.6216C57.2365 77.6216 58.8896 60.6323 58.8896 60.6323H46.3922C46.3922 60.6323 43.713 69.7804 30.6826 69.7804C20.0696 69.7804 12.4358 62.611 12.4358 52.5629H60.1973V46.2567C60.1973 36.3156 53.8855 20.9897 31.0089 20.9897ZM30.5733 29.0496C40.6764 29.0496 47.5634 35.2393 47.5634 44.515H12.7135C12.7135 34.6672 21.702 29.0496 30.5733 29.0496Z" fill="black" style="fill:black;fill-opacity:1;"/><path d="M60.188 0.079834V66.7774C60.188 70.5631 59.9175 75.8792 59.9175 75.8792H71.8373C71.8373 75.8792 72.2649 72.0615 72.2649 68.5717C72.2649 68.5717 78.1538 77.7852 94.1666 77.7852C111.029 77.7852 122.482 66.0784 122.482 49.3061C122.482 33.7027 111.962 21.1533 94.1937 21.1533C77.5555 21.1533 72.3854 30.1387 72.3854 30.1387V0.079834H60.188ZM91.1172 29.4031C102.568 29.4031 109.849 37.9017 109.849 49.3061C109.849 61.5355 101.44 69.5355 91.1994 69.5355C78.978 69.5355 72.3854 59.9933 72.3854 49.4146C72.3854 39.558 78.3007 29.4031 91.1172 29.4031Z" fill="black" style="fill:black;fill-opacity:1;"/><path d="M152.106 20.9897C126.724 20.9897 125.097 34.8882 125.097 37.1086H137.73C137.73 37.1086 138.392 28.9945 151.234 28.9945C159.58 28.9945 166.046 32.8146 166.046 40.158V42.7717H151.234C131.571 42.7717 121.176 48.5242 121.176 60.1967C121.176 71.6841 130.781 77.9352 143.761 77.9352C161.45 77.9352 167.148 68.1608 167.148 68.1608C167.148 72.0479 167.448 75.8792 167.448 75.8792H178.679C178.679 75.8792 178.243 71.1304 178.243 68.0922V41.8319C178.243 24.6144 164.355 20.9897 152.106 20.9897ZM166.046 50.613V54.098C166.046 58.6433 163.241 69.9432 146.728 69.9432C137.686 69.9432 133.809 65.4314 133.809 60.1967C133.809 50.6744 146.865 50.613 166.046 50.613Z" fill="black" style="fill:black;fill-opacity:1;"/><path d="M171.44 23.1702H185.652L206.049 64.0342L226.4 23.1702H239.274L202.206 95.9201H188.703L199.399 75.6405L171.44 23.1702Z" fill="black" style="fill:black;fill-opacity:1;"/></g><defs><clipPath id="a"><rect width="239.354" height="96" fill="white" style="fill:white;fill-opacity:1;"/></clipPath></defs></svg>