<svg width="260" height="52" viewBox="0 0 260 52" fill="none" xmlns="http://www.w3.org/2000/svg"><path fill-rule="evenodd" clip-rule="evenodd" d="M140.698 29.6095L110.224 0.970645V49.1359H119.302V22.4498L149.776 51.0886V2.92329H140.698V29.6095ZM70.0249 0.319763C55.7606 0.319763 44.7382 11.3848 44.7382 25.7042C44.7382 39.3727 56.409 51.0886 70.0249 51.0886C84.2893 51.0886 95.3117 40.0236 95.3117 25.7042C95.3117 11.3848 84.2893 0.319763 70.0249 0.319763ZM70.0249 41.9762C60.9476 41.9762 53.8155 34.8165 53.8155 25.7042C53.8155 16.5918 60.9476 9.43211 70.0249 9.43211C79.1022 9.43211 86.2344 16.5918 86.2344 25.7042C86.2344 34.8165 79.1022 41.9762 70.0249 41.9762ZM29.1771 25.7042C26.5835 23.7515 23.3416 22.4498 18.803 21.148C9.72569 18.5445 9.72569 15.9409 9.72569 14.6392C9.72569 12.0356 12.9676 9.43211 17.5062 9.43211C21.3965 9.43211 24.6384 11.3848 25.9352 12.0356L26.5835 12.6865L33.7157 7.47947L33.0673 6.82858C33.0673 6.82858 27.2319 0.319763 17.5062 0.319763C12.9676 0.319763 8.42893 1.62153 5.18703 4.22506C1.94514 6.82858 0 10.7339 0 14.6392C0 18.5445 1.94514 22.4498 5.18703 25.0533C7.78055 27.0059 11.0224 28.3077 15.5611 29.6095C24.6384 32.213 24.6384 34.8165 24.6384 36.1183C24.6384 38.7218 21.3965 41.3253 16.8579 41.3253C12.9676 41.3253 9.72569 39.3727 8.42893 38.7218L7.78055 38.0709L0.648379 43.278L1.29676 43.9289C1.29676 43.9289 7.13217 50.4377 16.8579 50.4377C21.3965 50.4377 25.9352 49.1359 29.1771 46.5324C32.419 43.9289 34.3641 40.0236 34.3641 36.1183C34.3641 32.213 32.419 28.9586 29.1771 25.7042ZM189.975 0.319763C175.711 0.319763 164.688 11.3848 164.688 25.7042C164.688 40.0236 176.359 51.0886 189.975 51.0886C204.239 51.0886 215.262 40.0236 215.262 25.7042C215.262 11.3848 203.591 0.319763 189.975 0.319763ZM189.975 41.9762C180.898 41.9762 173.766 34.8165 173.766 25.7042C173.766 16.5918 180.898 9.43211 189.975 9.43211C199.052 9.43211 206.185 16.5918 206.185 25.7042C206.185 34.8165 198.404 41.9762 189.975 41.9762ZM230.823 25.0533C233.416 27.0059 236.658 28.3077 241.197 29.6095C250.274 32.213 250.274 34.8165 250.274 36.1183C250.274 38.7218 247.032 41.3253 242.494 41.3253C238.604 41.3253 235.362 39.3727 234.065 38.7218H233.416L226.284 43.9289L226.933 44.5798C226.933 44.5798 232.768 51.0886 242.494 51.0886C247.032 51.0886 251.571 49.7868 254.813 47.1833C258.055 44.5797 260 40.6745 260 36.7692C260 32.8639 258.055 28.9586 254.813 26.355C252.219 24.4024 248.978 23.1006 244.439 21.7989C235.362 19.1953 235.362 16.5918 235.362 15.2901C235.362 12.6865 238.604 10.083 243.142 10.083C247.032 10.083 250.274 12.0356 251.571 12.6865L252.219 13.3374L259.352 8.13035L258.703 7.47947C258.703 7.47947 252.868 0.970645 243.142 0.970645C238.604 0.970645 234.065 2.27241 230.823 4.87594C227.581 7.47947 225.636 11.3848 225.636 15.2901C224.988 19.1953 226.933 22.4498 230.823 25.0533Z" fill="black" style="fill:black;fill-opacity:1;"/></svg>