<svg width="360" height="76" viewBox="0 0 360 76" fill="none" xmlns="http://www.w3.org/2000/svg"><g clip-path="url(#a)"><path d="M357.976 50.4137C356.859 50.4137 355.952 51.3072 355.952 52.4073C355.952 53.5074 356.859 54.4009 357.976 54.4009C359.092 54.4009 360 53.5074 360 52.4073C360 51.3072 359.092 50.4137 357.976 50.4137ZM357.976 54.0848C357.035 54.0848 356.273 53.3302 356.273 52.4073C356.273 51.4799 357.039 50.7298 357.976 50.7298C358.917 50.7298 359.683 51.4843 359.683 52.4073C359.683 53.3303 358.917 54.0848 357.976 54.0848ZM358.635 52.0659C358.635 51.7034 358.374 51.4884 357.989 51.4884H357.342V53.305H357.659V52.6475H358.006L358.339 53.305H358.682L358.314 52.5802C358.511 52.4916 358.635 52.3145 358.635 52.0659ZM357.976 52.3651H357.664V51.7625H357.976C358.19 51.7625 358.318 51.8678 358.318 52.0617C358.318 52.2598 358.186 52.3651 357.976 52.3651ZM114.147 30.2371V25.4153H106.643V54.1016H114.147V36.9009C114.147 33.7861 116.175 32.256 119.336 32.256H123.444V25.4154H119.935C117.189 25.4153 114.801 26.8272 114.147 30.2371ZM130.473 14.0689C127.906 14.0689 125.938 16.0668 125.938 18.5957C125.938 21.0656 127.906 23.0635 130.473 23.0635C133.04 23.0635 135.008 21.0656 135.008 18.5957C135.007 16.0667 133.04 14.0689 130.473 14.0689ZM126.729 54.1017H134.216V25.4153H126.729V54.1017ZM169.879 39.7584C169.879 47.9479 163.141 54.5864 154.828 54.5864C151.474 54.5864 148.433 53.5032 145.994 51.6739V62.523H138.507V25.4153H145.994V27.843C148.433 26.0138 151.474 24.9305 154.828 24.9305C163.141 24.9305 169.879 31.569 169.879 39.7584ZM162.345 39.7584C162.345 35.3118 158.683 31.7038 154.17 31.7038C149.656 31.7038 145.994 35.3118 145.994 39.7584C145.994 44.2052 149.656 47.8131 154.17 47.8131C158.683 47.8131 162.345 44.2094 162.345 39.7584ZM300.006 37.2422L295.638 36.062C292.763 35.3244 291.646 34.4561 291.646 32.9599C291.646 31.5015 293.221 30.4815 295.471 30.4815C297.615 30.4815 299.296 31.864 299.296 33.6342V33.7985H306.197V33.6342C306.197 28.4288 301.888 24.9304 295.471 24.9304C289.118 24.9304 284.502 28.4246 284.502 33.2421C284.502 36.9892 287.022 39.8131 291.42 40.9848L295.604 42.1102C298.782 42.9785 299.963 43.9395 299.963 45.6634C299.963 47.4801 298.256 48.7023 295.715 48.7023C293.067 48.7023 291.283 47.05 291.283 44.597V44.4326H283.958V44.597C283.958 50.481 288.767 54.5947 295.655 54.5947C302.291 54.5947 307.108 50.578 307.108 45.048C307.108 42.3336 305.876 38.7849 300.006 37.2422ZM196.439 25.4153H203.925V54.1016H196.439V51.6738C194 53.5031 190.958 54.5863 187.604 54.5863C179.292 54.5863 172.553 47.9479 172.553 39.7583C172.553 31.5688 179.292 24.9304 187.604 24.9304C190.958 24.9304 194 26.0137 196.439 27.8429V25.4153ZM196.439 39.7584C196.439 35.3076 192.776 31.7038 188.263 31.7038C183.749 31.7038 180.087 35.3118 180.087 39.7584C180.087 44.2052 183.749 47.8131 188.263 47.8131C192.781 47.8131 196.439 44.2094 196.439 39.7584ZM230.96 15.2069H238.447V54.1058H230.96V51.678C228.521 53.5073 225.479 54.5905 222.125 54.5905C213.812 54.5905 207.074 47.9521 207.074 39.7626C207.074 31.573 213.812 24.9347 222.125 24.9347C225.479 24.9347 228.521 26.0179 230.96 27.8471V15.2069ZM230.96 39.7584C230.96 35.3118 227.297 31.7038 222.784 31.7038C218.27 31.7038 214.608 35.3118 214.608 39.7584C214.608 44.2052 218.266 47.8131 222.784 47.8131C227.297 47.8131 230.96 44.2094 230.96 39.7584ZM273.207 54.1017H280.694V25.4153H273.207V54.1017ZM276.951 14.0689C274.384 14.0689 272.416 16.0668 272.416 18.5957C272.416 21.0656 274.384 23.0635 276.951 23.0635C279.517 23.0635 281.485 21.0656 281.485 18.5957C281.485 16.0667 279.517 14.0689 276.951 14.0689ZM339.468 39.7584C339.468 47.9479 332.73 54.5864 324.417 54.5864C316.105 54.5864 309.367 47.948 309.367 39.7584C309.367 31.5689 316.105 24.9305 324.417 24.9305C332.73 24.9305 339.468 31.569 339.468 39.7584ZM332.593 39.7584C332.593 35.3118 328.931 31.7038 324.417 31.7038C319.904 31.7038 316.242 35.3118 316.242 39.7584C316.242 44.2052 319.9 47.8131 324.417 47.8131C328.931 47.8131 332.593 44.2094 332.593 39.7584ZM110.313 15.2069H81.5938V21.7863H92.2252V54.1016H99.6864V21.7863H110.318V15.2069H110.313ZM255.555 46.2451L248.894 25.4154H241.031L251.02 54.1017H260.03L270.08 25.4154H262.216L255.555 46.2451ZM350.438 30.2371V25.4153H342.934V54.1016H350.438V36.9009C350.438 33.7861 352.466 32.256 355.627 32.256H359.734V25.4154H356.226C353.479 25.4153 351.096 26.8272 350.438 30.2371Z" fill="black" style="fill:black;fill-opacity:1;"/><path fill-rule="evenodd" clip-rule="evenodd" d="M76.5802 37.7229C76.5802 58.5567 59.4371 75.4459 38.2901 75.4459C17.1431 75.4459 0 58.5567 0 37.7229C0 16.8891 17.1431 -6.10352e-05 38.2901 -6.10352e-05C59.4371 -6.10352e-05 76.5802 16.8891 76.5802 37.7229ZM66.561 25.4115L61.9405 30.364C64.7728 32.9056 66.5481 36.5725 66.544 40.6483C66.544 48.332 60.2122 54.5615 52.413 54.5615C48.708 54.5615 45.3369 53.158 42.8169 50.8567L38.2906 55.708L33.7642 50.8524C31.2443 53.1538 27.8689 54.5615 24.1639 54.5615C16.3647 54.5615 10.0414 48.332 10.0414 40.6483C10.0414 36.5767 11.8169 32.9097 14.649 30.364L10.0285 25.4115H20.3005C25.4216 21.9638 31.5992 19.949 38.2905 19.949C44.9902 19.949 51.1851 21.9595 56.3147 25.4115H66.561ZM14.6106 40.6483C14.6106 45.8495 18.8887 50.0642 24.1681 50.0642C29.4474 50.0642 33.7256 45.8495 33.7256 40.6483C33.7256 35.4471 29.4474 31.2323 24.1681 31.2323C18.8888 31.2323 14.6106 35.4471 14.6106 40.6483ZM27.6848 26.5875C33.7214 28.8593 38.2948 34.1784 38.2948 40.3743C38.2948 34.1785 42.8683 28.8635 48.9005 26.5875C45.6361 25.2429 42.051 24.4969 38.2905 24.4969C34.5299 24.4969 30.949 25.2429 27.6848 26.5875ZM42.8597 40.6483C42.8597 45.8495 47.1379 50.0642 52.4173 50.0642C57.6966 50.0642 61.9748 45.8495 61.9748 40.6483C61.9748 35.4471 57.6967 31.2323 52.4173 31.2323C47.1379 31.2323 42.8597 35.4471 42.8597 40.6483ZM47.4074 40.6441C47.4074 37.917 49.6492 35.7084 52.4173 35.7084C55.1852 35.7084 57.4269 37.9212 57.4271 40.6441C57.4271 43.371 55.1852 45.5797 52.4173 45.5797C49.6492 45.5797 47.4074 43.371 47.4074 40.6441ZM24.1681 45.5839C26.936 45.5839 29.1779 43.3753 29.1779 40.6483C29.1779 37.9212 26.936 35.7084 24.1681 35.7126C21.4001 35.7126 19.1583 37.9212 19.1583 40.6483C19.1583 43.3753 21.4001 45.5839 24.1681 45.5839Z" fill="black" style="fill:black;fill-opacity:1;"/></g><defs><clipPath id="a"><rect width="360" height="75.4459" fill="white" style="fill:white;fill-opacity:1;"/></clipPath></defs></svg>